<svg width="16" height="16" viewBox="0 0 16 16" fill="none" xmlns="http://www.w3.org/2000/svg">
<g clip-path="url(#clip0_851_19714)">
<path d="M10 5.00002C10 5.00002 10.3333 5.00002 10.6667 5.66669C10.6667 5.66669 11.7255 4.00002 12.6667 3.66669" stroke="#454955" stroke-linecap="round" stroke-linejoin="round"/>
<path d="M14.6667 4.66668C14.6667 6.50763 13.1743 8.00001 11.3333 8.00001C9.49238 8.00001 8 6.50763 8 4.66668C8 2.82573 9.49238 1.33334 11.3333 1.33334C13.1743 1.33334 14.6667 2.82573 14.6667 4.66668Z" stroke="#454955" stroke-linecap="round"/>
<path d="M1.33301 6.66668H1.83301H1.33301ZM6.98007 1.83334C7.25621 1.83334 7.48007 1.60949 7.48007 1.33334C7.48007 1.0572 7.25621 0.833344 6.98007 0.833344V1.83334ZM6.98007 14.6667V15.1667V14.6667ZM1.33301 9.33334H0.833008H1.33301ZM7.68595 14.6667V14.1667V14.6667ZM12.506 13.8856L12.8493 14.2491L12.506 13.8856ZM13.833 9.61259C13.8331 9.33645 13.6093 9.11248 13.3332 9.11235C13.0571 9.11222 12.8331 9.33597 12.833 9.61211L13.833 9.61259ZM7.68595 14.1667H6.98007V15.1667H7.68595V14.1667ZM1.83301 9.33334L1.83301 6.66668H0.833008L0.833008 9.33334H1.83301ZM1.83301 6.66668C1.83301 5.39466 1.8342 4.49385 1.93139 3.81109C2.0261 3.14577 2.20311 2.76143 2.50331 2.4779L1.81669 1.75089C1.2899 2.2484 1.05341 2.88313 0.941373 3.67015C0.83182 4.43972 0.833008 5.42454 0.833008 6.66668H1.83301ZM6.98007 0.833344C5.66241 0.833343 4.62663 0.832394 3.81891 0.934957C2.99959 1.03899 2.33944 1.25718 1.81669 1.75089L2.50331 2.4779C2.80756 2.19056 3.22642 2.01822 3.94487 1.92699C4.67492 1.83429 5.63567 1.83334 6.98007 1.83334V0.833344ZM6.98007 14.1667C5.63567 14.1667 4.67492 14.1657 3.94487 14.073C3.22641 13.9818 2.80755 13.8095 2.50331 13.5221L1.81669 14.2491C2.33944 14.7428 2.99959 14.961 3.8189 15.0651C4.62663 15.1676 5.66241 15.1667 6.98007 15.1667V14.1667ZM0.833008 9.33334C0.833008 10.5755 0.83182 11.5603 0.941372 12.3299C1.05341 13.1169 1.2899 13.7516 1.81669 14.2491L2.50331 13.5221C2.2031 13.2386 2.0261 12.8543 1.93139 12.1889C1.8342 11.5062 1.83301 10.6054 1.83301 9.33334H0.833008ZM7.68595 15.1667C9.0036 15.1667 10.0394 15.1676 10.8471 15.0651C11.6664 14.961 12.3266 14.7428 12.8493 14.2491L12.1627 13.5221C11.8585 13.8095 11.4396 13.9818 10.7211 14.073C9.9911 14.1657 9.03034 14.1667 7.68595 14.1667V15.1667ZM12.833 9.61211C12.8324 10.7885 12.8234 11.6263 12.7235 12.2632C12.6264 12.8826 12.452 13.2489 12.1627 13.5221L12.8493 14.2491C13.3559 13.7707 13.5943 13.1651 13.7115 12.4181C13.8258 11.6885 13.8324 10.7655 13.833 9.61259L12.833 9.61211Z" fill="#454955"/>
<path d="M4.66602 8.66669H7.33268" stroke="#454955" stroke-linecap="round"/>
<path d="M4.66602 11.3333L9.99935 11.3333" stroke="#454955" stroke-linecap="round"/>
</g>
<defs>
<clipPath id="clip0_851_19714">
<rect width="16" height="16" fill="white"/>
</clipPath>
</defs>
</svg>
