<svg width="25" height="24" viewBox="0 0 25 24" fill="none" xmlns="http://www.w3.org/2000/svg">
<path fill-rule="evenodd" clip-rule="evenodd" d="M10.3236 1.99594C11.1595 1.52688 11.9337 1.25 12.7998 1.25C13.6659 1.25 14.4401 1.52688 15.276 1.99594C16.0859 2.45043 17.0139 3.12145 18.1809 3.96522L18.181 3.96525L19.69 5.05633C20.6265 5.73347 21.3745 6.2743 21.9387 6.77487C22.5213 7.29173 22.9571 7.807 23.2335 8.45513C23.5106 9.10469 23.5776 9.77045 23.5404 10.5381C23.5045 11.2789 23.3672 12.1726 23.1959 13.2871L22.8806 15.3387C22.6373 16.9225 22.4435 18.1837 22.1588 19.1662C21.8644 20.1821 21.4497 20.9887 20.7084 21.6052C19.9702 22.2192 19.0909 22.4926 18.0168 22.6231C16.9718 22.75 15.6537 22.75 13.9887 22.75H11.6109C9.94595 22.75 8.6278 22.75 7.58287 22.6231C6.50871 22.4926 5.62938 22.2192 4.89121 21.6052C4.14996 20.9887 3.73525 20.1821 3.44086 19.1662C3.15615 18.1836 2.96236 16.9225 2.71899 15.3387L2.40373 13.2872C2.23244 12.1727 2.09508 11.2789 2.05922 10.5381C2.02205 9.77045 2.08906 9.10469 2.3661 8.45513C2.64254 7.807 3.07835 7.29173 3.6609 6.77487C4.22509 6.27429 4.9731 5.73346 5.90964 5.05632L7.41868 3.96524C8.58567 3.12145 9.51371 2.45043 10.3236 1.99594ZM13.7998 15C13.7998 14.4477 13.3521 14 12.7998 14C12.2475 14 11.7998 14.4477 11.7998 15V18C11.7998 18.5523 12.2475 19 12.7998 19C13.3521 19 13.7998 18.5523 13.7998 18V15Z" fill="#2970FF"/>
</svg>
