<svg width="25" height="24" viewBox="0 0 25 24" fill="none" xmlns="http://www.w3.org/2000/svg">
<path d="M5.75798 11.491C5.6845 12.887 5.76897 14.373 4.52174 15.3084C3.94125 15.7438 3.59961 16.427 3.59961 17.1527C3.59961 18.1508 4.38141 19 5.39961 19H19.7996C20.8178 19 21.5996 18.1508 21.5996 17.1527C21.5996 16.427 21.258 15.7438 20.6775 15.3084C19.4302 14.373 19.5147 12.887 19.4412 11.491C19.2497 7.85223 16.2434 5 12.5996 5C8.95578 5 5.94949 7.85222 5.75798 11.491Z" stroke="#9CA3AF" stroke-width="1.5" stroke-linecap="round" stroke-linejoin="round"/>
<path d="M11.0996 3.125C11.0996 3.95343 11.7712 5 12.5996 5C13.428 5 14.0996 3.95343 14.0996 3.125C14.0996 2.29657 13.428 2 12.5996 2C11.7712 2 11.0996 2.29657 11.0996 3.125Z" stroke="#9CA3AF" stroke-width="1.5"/>
<path d="M15.5996 19C15.5996 20.6569 14.2565 22 12.5996 22C10.9428 22 9.59961 20.6569 9.59961 19" stroke="#9CA3AF" stroke-width="1.5" stroke-linecap="round" stroke-linejoin="round"/>
</svg>
