<svg width="22" height="22" viewBox="0 0 22 22" fill="none" xmlns="http://www.w3.org/2000/svg">
<path d="M10.7998 17L10.7998 14" stroke="#9CA3AF" stroke-width="1.5" stroke-linecap="round"/>
<path d="M1.1512 12.2135C0.798176 9.91624 0.621666 8.76763 1.05597 7.74938C1.49027 6.73112 2.45383 6.03443 4.38094 4.64106L5.82079 3.6C8.2181 1.86667 9.41675 1 10.7998 1C12.1829 1 13.3815 1.86667 15.7788 3.6L17.2187 4.64106C19.1458 6.03443 20.1093 6.73112 20.5436 7.74938C20.9779 8.76763 20.8014 9.91624 20.4484 12.2135L20.1474 14.1724C19.6469 17.4289 19.3967 19.0572 18.2288 20.0286C17.0609 21 15.3535 21 11.9386 21H9.66099C6.24614 21 4.53871 21 3.3708 20.0286C2.20289 19.0572 1.95267 17.4289 1.45223 14.1724L1.1512 12.2135Z" stroke="#9CA3AF" stroke-width="1.5" stroke-linejoin="round"/>
</svg>
