<svg width="25" height="24" viewBox="0 0 25 24" fill="none" xmlns="http://www.w3.org/2000/svg">
<path d="M7.90294 4C7.88411 3.62851 7.95175 3.34156 8.1357 3.1C8.59258 2.5 9.52326 2.5 11.3846 2.5H13.4152C15.2765 2.5 16.2072 2.5 16.6641 3.1C16.8481 3.34156 16.9157 3.62851 16.8969 4" stroke="#9CA3AF" stroke-width="1.5" stroke-linecap="round" stroke-linejoin="round"/>
<path d="M5.3999 8C5.43775 7.74037 5.52468 7.51593 5.66959 7.31431C6.25483 6.5 7.468 6.5 9.89434 6.5H14.9055C17.3318 6.5 18.545 6.5 19.1302 7.31431C19.2751 7.51593 19.3621 7.74037 19.3999 8" stroke="#9CA3AF" stroke-width="1.5" stroke-linecap="round" stroke-linejoin="round"/>
<path d="M4.21743 15.7128L4.93631 18.016C5.83184 20.8852 6.59719 21.5 9.61017 21.5H15.1896C18.2026 21.5 18.968 20.8852 19.8635 18.016L20.5824 15.7128C21.326 13.3303 21.6978 12.139 21.11 11.3195C20.5222 10.5 19.2959 10.5 16.8433 10.5H7.95652C5.50391 10.5 4.2776 10.5 3.68978 11.3195C3.10197 12.139 3.47379 13.3303 4.21743 15.7128Z" stroke="#9CA3AF" stroke-width="1.5" stroke-linecap="round" stroke-linejoin="round"/>
</svg>
