<svg width="24" height="25" viewBox="0 0 24 25" fill="none" xmlns="http://www.w3.org/2000/svg">
<path d="M11.1002 3.94922C7.45057 3.95579 5.53942 4.04539 4.31806 5.26675C3 6.58481 3 8.70619 3 12.949C3 17.1917 3 19.3131 4.31806 20.6312C5.63611 21.9492 7.7575 21.9492 12.0003 21.9492C16.243 21.9492 18.3644 21.9492 19.6825 20.6312C20.9038 19.4098 20.9934 17.4987 21 13.849" stroke="white" stroke-width="1.5" stroke-linecap="round" stroke-linejoin="round"/>
<path d="M21.0713 4.98072C21.3649 4.68848 21.3659 4.21361 21.0737 3.92006C20.7814 3.62652 20.3066 3.62547 20.013 3.91772L21.0713 4.98072ZM10.4708 13.4177C10.1773 13.71 10.1763 14.1848 10.4685 14.4784C10.7607 14.7719 11.2356 14.773 11.5292 14.4807L10.4708 13.4177ZM20.0285 4.17628L19.8977 4.91479L20.0285 4.17628ZM15.9999 3.19922C15.5857 3.19925 15.25 3.53507 15.25 3.94928C15.2501 4.3635 15.5859 4.69925 16.0001 4.69922L15.9999 3.19922ZM20.25 8.94922C20.25 9.36343 20.5858 9.69922 21 9.69922C21.4142 9.69922 21.75 9.36343 21.75 8.94922H20.25ZM20.773 4.92097L21.5115 4.79031V4.79031L20.773 4.92097ZM20.013 3.91772L10.4708 13.4177L11.5292 14.4807L21.0713 4.98072L20.013 3.91772ZM20.1593 3.43777C19.4584 3.31365 18.4016 3.25618 17.5581 3.22793C17.1282 3.21354 16.7396 3.20637 16.4585 3.20279C16.3179 3.201 16.2038 3.20011 16.1247 3.19966C16.0851 3.19944 16.0543 3.19933 16.0331 3.19927C16.0226 3.19925 16.0144 3.19923 16.0089 3.19923C16.0061 3.19922 16.0039 3.19922 16.0024 3.19922C16.0017 3.19922 16.0011 3.19922 16.0007 3.19922C16.0005 3.19922 16.0003 3.19922 16.0002 3.19922C16.0001 3.19922 16.0001 3.19922 16 3.19922C16 3.19922 15.9999 3.19922 16 3.94922C16.0001 4.69922 16.0001 4.69922 16.0001 4.69922C16.0001 4.69922 16.0001 4.69922 16.0001 4.69922C16.0001 4.69922 16.0002 4.69922 16.0003 4.69922C16.0006 4.69922 16.001 4.69922 16.0016 4.69922C16.0027 4.69922 16.0046 4.69922 16.007 4.69922C16.0119 4.69923 16.0193 4.69924 16.0292 4.69927C16.0489 4.69932 16.0782 4.69943 16.1162 4.69964C16.1922 4.70007 16.3027 4.70093 16.4394 4.70267C16.7131 4.70615 17.091 4.71313 17.5079 4.72709C18.3577 4.75555 19.3151 4.81161 19.8977 4.91479L20.1593 3.43777ZM21 8.94922C21.75 8.94922 21.75 8.94918 21.75 8.94913C21.75 8.9491 21.75 8.94903 21.75 8.94897C21.75 8.94885 21.75 8.94868 21.75 8.94847C21.75 8.94806 21.75 8.94748 21.75 8.94673C21.75 8.94524 21.75 8.9431 21.75 8.94031C21.75 8.93474 21.75 8.92661 21.75 8.91604C21.7499 8.89492 21.7498 8.86405 21.7496 8.82448C21.7491 8.74536 21.7482 8.63134 21.7464 8.49069C21.7428 8.20962 21.7356 7.82104 21.7212 7.39125C21.6929 6.54779 21.6355 5.49108 21.5115 4.79031L20.0344 5.05162C20.1375 5.63428 20.1936 6.59169 20.2221 7.4415C20.236 7.85835 20.243 8.23619 20.2465 8.50988C20.2483 8.64661 20.2491 8.75706 20.2496 8.83306C20.2498 8.87105 20.2499 8.90041 20.25 8.92012C20.25 8.92997 20.25 8.93741 20.25 8.9423C20.25 8.94475 20.25 8.94656 20.25 8.94771C20.25 8.94829 20.25 8.94871 20.25 8.94896C20.25 8.94909 20.25 8.94917 20.25 8.94921C20.25 8.94924 20.25 8.94924 20.25 8.94925C20.25 8.94924 20.25 8.94922 21 8.94922ZM19.8977 4.91479C19.9482 4.92373 19.9757 4.94264 19.9911 4.95808C20.0065 4.97354 20.0255 5.00104 20.0344 5.05162L21.5115 4.79031C21.3874 4.08894 20.8609 3.56202 20.1593 3.43777L19.8977 4.91479Z" fill="white"/>
</svg>
