<svg width="38" height="38" viewBox="0 0 38 38" fill="none" xmlns="http://www.w3.org/2000/svg">
<circle cx="19" cy="19" r="19" fill="white"/>
<g clip-path="url(#clip0_823_13106)">
<path d="M9.23079 22.6942C8.77932 19.7596 8.32784 16.8251 7.87637 13.8905C7.77625 13.2399 8.51643 12.7963 9.04294 13.1912C10.4495 14.2461 11.8561 15.301 13.2626 16.3559C13.7258 16.7033 14.3856 16.5902 14.7066 16.1086L18.2196 10.839C18.5909 10.2822 19.4091 10.2822 19.7803 10.839L23.2933 16.1086C23.6144 16.5902 24.2742 16.7032 24.7373 16.3559C26.1439 15.301 27.5504 14.2461 28.957 13.1912C29.4835 12.7963 30.2237 13.2399 30.1237 13.8905C29.6722 16.8251 29.2207 19.7596 28.7692 22.6942H9.23079Z" fill="#2970FF"/>
<path d="M27.7502 27.5786H10.2491C9.68654 27.5786 9.23047 27.1225 9.23047 26.56V24.3223H28.7689V26.56C28.7689 27.1225 28.3128 27.5786 27.7502 27.5786Z" fill="#2970FF"/>
</g>
<defs>
<clipPath id="clip0_823_13106">
<rect width="23.75" height="23.75" fill="white" transform="translate(7.125 7.125)"/>
</clipPath>
</defs>
</svg>
