<svg width="16" height="16" viewBox="0 0 16 16" fill="none" xmlns="http://www.w3.org/2000/svg">
<path d="M1.57392 9.73114C1.32351 8.35013 1.19831 7.65962 1.55406 7.19168C1.57778 7.16048 1.60286 7.13035 1.62923 7.10136C2.02474 6.66669 2.72466 6.66669 4.12449 6.66669H11.8758C13.2757 6.66669 13.9756 6.66669 14.3711 7.10136C14.3975 7.13035 14.4225 7.16048 14.4463 7.19168C14.802 7.65962 14.6768 8.35013 14.4264 9.73114C14.0664 11.7168 13.8863 12.7096 13.2074 13.3195C13.1611 13.3611 13.1134 13.4011 13.0643 13.4393C12.3444 14 11.338 14 9.32526 14H6.67507C4.66232 14 3.65594 14 2.93607 13.4393C2.88697 13.4011 2.83923 13.3611 2.79292 13.3195C2.114 12.7096 1.93397 11.7168 1.57392 9.73114Z" stroke="#454955"/>
<path d="M5.34686 3.40742H10.5383C11.4109 3.40742 12.5042 3.28217 13.0645 4.09875C13.3337 4.4911 13.3337 5.57432 13.3337 6.66668M8.00913 3.40742L7.50008 2.41597C7.32142 2.068 7.15429 1.64688 6.78901 1.45629C6.55339 1.33334 6.26935 1.33334 5.70128 1.33334C4.36764 1.33334 3.70081 1.33334 3.25553 1.697C2.51076 2.30525 2.6846 3.55366 2.6846 4.40071V6.66668" stroke="#454955" stroke-linecap="round"/>
</svg>
