<svg width="24" height="25" viewBox="0 0 24 25" fill="none" xmlns="http://www.w3.org/2000/svg">
<path d="M14 15.7628V10.1357C14 6.99048 14 5.41788 13.0747 5.02652C12.1494 4.63515 11.0603 5.74715 8.88232 7.97114C7.75439 9.12286 7.11085 9.37791 5.50604 9.37791C4.10257 9.37791 3.40084 9.37791 2.89675 9.72183C1.85035 10.4358 2.00852 11.8312 2.00852 12.9492C2.00852 14.0672 1.85035 15.4627 2.89675 16.1766C3.40084 16.5205 4.10257 16.5205 5.50604 16.5205C7.11085 16.5205 7.75439 16.7756 8.88232 17.9273C11.0603 20.1513 12.1494 21.2633 13.0747 20.8719C14 20.4806 14 18.908 14 15.7628Z" stroke="white" stroke-width="1.5" stroke-linecap="round" stroke-linejoin="round"/>
<path d="M17 9.94922C17.6254 10.7689 18 11.8127 18 12.9492C18 14.0858 17.6254 15.1295 17 15.9492" stroke="white" stroke-width="1.5" stroke-linecap="round" stroke-linejoin="round"/>
<path d="M20 7.94922C21.2508 9.31534 22 11.055 22 12.9492C22 14.8435 21.2508 16.5831 20 17.9492" stroke="white" stroke-width="1.5" stroke-linecap="round" stroke-linejoin="round"/>
</svg>
