<svg width="154" height="101" viewBox="0 0 154 101" fill="none" xmlns="http://www.w3.org/2000/svg">
<g clip-path="url(#clip0_175_30527)">
<path d="M51.4027 83.3879C51.1625 83.3767 50.9132 83.3711 50.6472 83.3711C49.029 83.3711 47.0839 83.9405 45.5063 84.831C45.4601 84.8571 45.4158 84.8814 45.3715 84.9075C44.6898 85.3052 44.1449 85.8708 43.757 86.5336C43.757 86.5336 43.757 86.5355 43.757 86.5373C43.7385 86.5672 43.7219 86.5952 43.7053 86.6251C43.5464 86.9088 43.419 87.2094 43.3229 87.523C41.6475 90.988 38.9523 92.881 35.0547 93.6819V73.318C35.2228 73.318 35.3927 73.3236 35.5571 73.3236C39.1796 73.3236 43.1049 72.3845 43.1049 72.3845V80.6137C43.733 79.8091 44.5033 79.0493 45.3715 78.3772C45.4177 78.3399 45.4638 78.3044 45.51 78.2708C46.8844 77.2328 48.497 76.4114 50.1909 75.9727C49.5979 76.8482 49.2544 77.9011 49.2544 79.0325C49.2544 80.8097 50.0967 82.3891 51.4045 83.3879H51.4027Z" fill="white"/>
<path d="M58.429 79.1986C58.3458 81.1868 56.6889 82.8148 54.7197 82.8446C54.0473 82.8558 53.4156 82.6897 52.8688 82.3891C51.6903 81.7413 50.8867 80.4812 50.8867 79.0325C50.8867 77.5838 51.6903 76.3199 52.8688 75.6758C53.4008 75.3827 54.0122 75.2166 54.6625 75.2166C56.7997 75.2166 58.5232 77.0162 58.4308 79.1967L58.429 79.1986Z" fill="#588DE9"/>
<path d="M43.3229 87.5249C43.1788 87.986 43.1049 88.4714 43.1049 88.9661C43.1049 91.2139 42.2035 93.2488 40.7479 94.7199C39.2904 96.191 37.2788 97.102 35.0547 97.102V93.6837C38.9542 92.8828 41.6475 90.9898 43.3229 87.5249Z" fill="black"/>
<path d="M43.3229 87.5249C43.1788 87.986 43.1049 88.4714 43.1049 88.9661C43.1049 91.2139 42.2035 93.2488 40.7479 94.7199C39.2904 96.191 37.2788 97.102 35.0547 97.102V93.6837C38.9542 92.8828 41.6475 90.9898 43.3229 87.5249Z" fill="#B5B5B5"/>
<path d="M66.2826 36.5572C65.8522 45.466 62.2464 52.9745 56.8932 58.4296V58.4333C56.4221 58.9149 55.9363 59.3798 55.4394 59.8297C50.1489 64.6089 43.4379 67.5343 36.4646 68.0981C34.0448 68.296 31.5916 68.2064 29.1588 67.8069C29.1126 67.7994 29.0665 67.7901 29.0221 67.7845C28.6434 67.7247 28.2685 67.6519 27.8879 67.5735C27.7679 67.5474 27.6459 67.5231 27.5259 67.4951C22.7342 66.4347 18.0644 64.1478 13.8878 60.4682C13.4629 60.0948 13.0454 59.7065 12.6298 59.3033C12.1994 58.8869 11.7782 58.452 11.3589 58.002C5.14112 51.1861 2.56423 41.3962 4.30987 32.4295C4.96933 32.8029 5.73778 33.0139 6.53763 33.0139C6.57642 33.0139 6.61336 33.0139 6.65216 33.0101C5.97607 40.6382 8.41626 48.8263 14.8428 54.4867C15.2732 54.8788 15.7147 55.2559 16.1728 55.6124C16.6623 55.9952 17.1684 56.3592 17.6875 56.7008C20.4694 58.5397 23.6208 59.7662 26.8775 60.3375C27.4889 60.4458 28.1059 60.5317 28.7229 60.5914C31.6748 60.8845 34.671 60.6381 37.5176 59.8223C38.8827 59.4321 40.2053 58.9149 41.4817 58.2615C44.2248 56.9249 46.593 55.0505 48.503 52.8196C54.1556 46.265 55.8901 36.63 51.7893 28.5203C50.7991 26.5134 49.4747 24.6913 47.9027 23.1344C45.1762 20.4218 41.7034 18.4933 37.9646 17.7372C37.4326 17.6252 36.8895 17.5431 36.3483 17.4833C34.5324 17.2556 32.6907 17.319 30.8971 17.642C25.0635 18.6949 19.1394 17.8623 13.9284 15.3775L12.9641 14.8921C10.4778 13.589 8.17243 11.892 6.13863 9.83845C12.905 3.43319 22.0322 0 31.1575 0C36.3113 0 41.4614 1.09586 46.1848 3.36785C58.709 9.11037 67.0603 22.7236 66.2826 36.5591V36.5572Z" fill="#4777CC"/>
<path d="M66.2837 36.5572C66.1193 39.9493 65.4949 43.1361 64.49 46.0858C62.8552 50.8855 60.21 55.0505 56.8942 58.4296V58.4333C56.425 58.9149 55.9373 59.3817 55.4404 59.8297C50.15 64.6089 43.439 67.5343 36.4657 68.0981C34.0458 68.296 31.5927 68.2064 29.1599 67.8069C29.1155 67.8013 29.0694 67.7901 29.0232 67.7845C28.6445 67.7247 28.2695 67.6519 27.889 67.5735C27.7689 67.5474 27.647 67.525 27.5269 67.4951C22.7371 66.4347 18.0654 64.1478 13.8888 60.4682C13.4639 60.0948 13.0465 59.7065 12.6308 59.3033C12.2004 58.8869 11.7793 58.452 11.36 58.002C5.14402 51.1861 2.56713 41.3962 4.31092 32.4295C4.97038 32.8029 5.73883 33.0139 6.53868 33.0139C6.57747 33.0139 6.61441 33.0139 6.65321 33.0101C5.97712 40.6382 8.41731 48.8263 14.8438 54.4867C15.2742 54.8788 15.7157 55.2559 16.172 55.6124C16.6615 55.9952 17.1676 56.3592 17.6867 56.7008C20.4686 58.5397 23.62 59.7662 26.8767 60.3375C27.4881 60.4477 28.1051 60.5317 28.7221 60.5914C31.6758 60.8845 34.6683 60.6381 37.5168 59.8223C38.8819 59.4339 40.2045 58.9149 41.4809 58.2615C44.224 56.9249 46.5922 55.0486 48.5022 52.8196C54.1548 46.265 55.8893 36.63 51.7885 28.5203C50.7983 26.5134 49.4739 24.6913 47.9019 23.1325C45.9143 21.1555 43.5313 19.5948 40.936 18.6016C40.8953 18.5866 40.8547 18.5698 40.8141 18.5568C40.766 18.5381 40.718 18.5194 40.67 18.5045C40.6367 18.4933 40.6053 18.4821 40.5758 18.4709C40.5462 18.4597 40.5185 18.4485 40.4889 18.4392C40.4391 18.4205 40.3892 18.4018 40.3393 18.3869C40.3172 18.3794 40.2968 18.372 40.2765 18.3645C40.21 18.3402 40.1435 18.3178 40.0752 18.2973C40.0696 18.2954 40.0659 18.2935 40.0659 18.2935C39.3769 18.0658 38.675 17.881 37.9638 17.7372C37.4318 17.6252 36.8887 17.5431 36.3475 17.4833C34.5316 17.2556 32.6899 17.319 30.8963 17.642C25.0646 18.6949 19.1386 17.8642 13.9276 15.3775L12.9652 14.8921C10.4788 13.589 8.17348 11.892 6.13968 9.83845C12.9061 3.43319 22.0351 0 31.1586 0C36.3124 0 41.4624 1.09586 46.1858 3.36785C58.71 9.11037 67.0614 22.7236 66.2837 36.5591V36.5572Z" fill="#4777CC"/>
<path d="M27.5259 72.8457V93.8089C27.5259 93.8854 27.5259 93.9601 27.5185 94.0366C27.4723 95.6515 26.8978 97.1263 25.9631 98.3006C24.6608 99.9472 22.6547 101 20.4085 101C18.6943 101 17.1204 100.386 15.8883 99.3629C14.3791 98.1046 13.3872 96.2302 13.3022 94.1188C13.2948 94.0161 13.293 93.9134 13.293 93.8089V66.2295C17.3495 69.4349 21.8863 71.6061 26.7981 72.6945C26.8997 72.7169 27.0031 72.7412 27.1084 72.7636L27.2266 72.786C27.3319 72.8084 27.4298 72.8289 27.5277 72.8457H27.5259Z" fill="#588DE9"/>
<path d="M27.5264 74.1001V93.8087C27.5264 93.8853 27.5264 93.9599 27.519 94.0365C27.4562 95.334 26.8651 96.848 25.9637 98.3004C24.6614 99.947 22.6553 101 20.409 101C18.6948 101 17.121 100.386 15.8889 99.3627C14.3797 98.1044 13.3877 96.2301 13.3027 94.1186C23.433 93.6855 27.5264 88.686 27.5264 74.1001Z" fill="#4777CC"/>
<path d="M10.4776 34.2067L8.6784 31.4699H8.67655L8.18704 30.7212C7.88224 31.033 7.45184 31.2552 6.92723 31.3299C6.90136 31.3336 6.87366 31.3373 6.84595 31.3373C6.46911 31.3821 6.09043 31.3467 5.73391 31.2421C5.612 31.2066 5.49193 31.1656 5.37924 31.117C5.35154 31.104 5.32198 31.0909 5.29612 31.0778C5.26102 31.061 5.22592 31.0424 5.19083 31.0255C5.12617 30.9919 5.05967 30.9546 4.99687 30.9154C4.99502 30.9135 4.99502 30.9117 4.99317 30.9117C4.89158 30.8501 4.79367 30.7791 4.70131 30.7044C4.42053 30.4804 4.19702 30.2041 4.04554 29.8924C4.01414 29.8307 3.98458 29.7691 3.96057 29.7057C3.94764 29.6795 3.9384 29.6534 3.93102 29.6273C3.91993 29.5937 3.90885 29.5619 3.90331 29.5283C3.89592 29.5059 3.89222 29.4835 3.88668 29.463C3.8756 29.4182 3.86636 29.3752 3.86082 29.3304L3.38793 29.5152L1.38368 30.2937L0.00195312 30.8295L1.59796 29.196L2.7728 27.9919L4.93591 25.7815L5.5418 25.1635C7.01589 22.6022 8.48814 20.0446 9.96592 17.4739C9.95853 17.5523 9.95669 17.6008 9.95299 17.6512C9.70546 20.4366 9.45424 23.2239 9.20671 26.0074C9.19932 26.0709 9.19563 26.1381 9.19008 26.1997L9.35079 27.1966L9.84216 30.2676L10.4795 34.2067H10.4776Z" fill="#B5B5B5"/>
<path d="M9.20466 26.0093C9.19727 26.0727 9.19358 26.1399 9.18804 26.2016L9.34875 27.1985C8.87031 28.7816 8.45469 30.0193 8.3143 30.3908C8.22932 30.6205 8.07231 30.8183 7.86357 30.9416C7.12837 31.3784 6.3784 31.4307 5.73187 31.2477C5.60995 31.2123 5.48988 31.1712 5.3772 31.1226C5.34949 31.1096 5.31993 31.0965 5.29407 31.0834C5.25898 31.0666 5.22388 31.048 5.18878 31.0312C5.12413 30.9957 5.05763 30.9584 4.99482 30.921C4.99297 30.9192 4.99297 30.9173 4.99113 30.9173C4.51085 30.6111 4.1414 30.1743 3.95852 29.7113C3.93636 29.6515 3.91789 29.5918 3.89941 29.5339C3.89202 29.5115 3.88833 29.4891 3.88279 29.4686C3.8717 29.4238 3.86247 29.3808 3.85693 29.336C3.78488 28.8936 4.25223 27.5028 4.93202 25.7871L5.53791 25.1692C7.012 22.6078 8.48424 20.0502 9.96203 17.4795C9.95464 17.5579 9.95279 17.6064 9.9491 17.6568C9.70157 20.4422 9.45034 23.2295 9.20282 26.013L9.20466 26.0093Z" fill="#588DE9"/>
<path d="M66.273 36.5591C66.1086 39.9512 65.4843 43.138 64.4794 46.0876C64.6124 28.4606 45.2922 20.237 40.9272 18.6034C40.8865 18.5885 40.8459 18.5717 40.8052 18.5586C40.7554 18.54 40.7073 18.5232 40.6612 18.5064C40.6279 18.4952 40.5965 18.484 40.567 18.4728C40.5374 18.4616 40.5097 18.4504 40.4801 18.441C40.4303 18.4224 40.3804 18.4037 40.3305 18.3888C40.3083 18.3813 40.288 18.3738 40.2677 18.3664C40.1587 18.329 40.0904 18.3066 40.0664 18.2991C40.0608 18.2973 40.0571 18.2954 40.0571 18.2954C39.3681 18.0676 38.6661 17.8828 37.955 17.7391C37.423 17.6271 36.8799 17.5449 36.3386 17.4852C34.5228 17.2574 32.6811 17.3209 30.8875 17.6439C25.0557 18.6968 19.1298 17.866 13.9188 15.3793L12.9564 14.894C10.47 13.5909 8.16466 11.8939 6.13086 9.84032C12.8954 3.43319 22.0244 0 31.1479 0C36.3017 0 41.4518 1.09586 46.1751 3.36785C58.6994 9.11037 67.0507 22.7236 66.273 36.5591Z" fill="#588DE9"/>
<path d="M76.9874 84.5585C75.5225 81.0226 72.179 78.5005 67.4612 78.5005C61.0273 78.5005 57.1426 83.2442 57.1426 88.8467C57.1426 90.9414 57.6783 92.9147 58.6832 94.565C60.3808 97.3597 63.4176 99.234 67.4612 99.234C73.9339 99.234 77.8186 94.4903 77.8186 88.8467C77.8186 87.329 77.5342 85.8728 76.9874 84.5585ZM67.4612 94.6117C65.9687 94.6117 64.7846 94.0329 63.9478 93.0995C62.9891 92.0316 62.4829 90.5045 62.4829 88.8467C62.4829 85.7795 64.2637 83.121 67.4612 83.121C70.6588 83.121 72.4155 85.6898 72.4764 88.6899C72.4764 88.7422 72.4783 88.7945 72.4783 88.8467C72.4783 91.9551 70.6569 94.6117 67.4612 94.6117Z" fill="white"/>
<path d="M93.4182 87.8704C89.9916 85.9475 84.7381 86.4142 84.7381 84.4297C84.7381 83.3264 85.9517 82.4676 87.8137 82.4676C89.007 82.4676 90.1597 82.7215 91.1609 83.136C92.1621 83.5504 93.0118 84.1235 93.5992 84.7564C94.8904 82.5292 93.7581 79.6486 91.2939 78.9653C90.2206 78.6704 89.0476 78.5005 87.7731 78.5005C84.6771 78.5005 82.4032 79.5534 81.0861 81.116C80.2142 82.1465 79.7598 83.3992 79.7598 84.7153C79.7598 85.7477 79.9667 86.5971 80.3213 87.2991C81.74 90.1031 85.5582 90.5867 88.3088 91.1859C90.0562 91.5686 91.3733 91.998 91.3733 93.0995C91.3733 94.326 90.3204 95.2259 88.0963 95.2259C86.262 95.2259 84.1525 94.4567 82.6211 93.499C82.1224 93.1891 81.6864 92.8568 81.3391 92.5263C81.0454 93.0061 80.8626 93.5158 80.7813 94.0311C80.4636 95.995 81.5996 98.028 83.6353 98.631C84.9616 99.0231 86.3969 99.234 87.8525 99.234C90.3075 99.234 92.2711 98.6721 93.686 97.7237C95.0234 96.8295 95.8713 95.5918 96.1798 94.1543C96.2648 93.7492 96.3091 93.3272 96.3091 92.8941C96.3091 90.2936 95.0789 88.8019 93.4182 87.8704Z" fill="white"/>
<path d="M109.46 83.5298V82.9996C109.46 81.8925 109.017 80.89 108.3 80.1657C107.581 79.4394 106.591 78.9914 105.496 78.9914V78.8271C105.496 77.3821 104.916 76.0735 103.978 75.1269C103.041 74.1786 101.746 73.5942 100.316 73.5942V78.9914H97.0781V80.259C97.0781 81.1626 97.4402 81.9803 98.0276 82.5721C98.1107 82.6561 98.1994 82.7363 98.2917 82.811C98.8459 83.2609 99.5497 83.5298 100.316 83.5298V93.8349C100.316 97.3521 102.258 99.2339 105.86 99.2339C105.88 99.2339 105.902 99.2321 105.923 99.2321C108.226 99.2209 109.872 96.9732 109.25 94.7329L109.056 94.0403C108.773 94.3259 108.043 94.6116 107.275 94.6116C106.142 94.6116 105.496 93.6707 105.496 92.4441V83.5298H109.46Z" fill="white"/>
<path d="M125.361 84.1851V90.0564C125.361 92.4535 123.527 94.4978 121.157 94.606C121.076 94.6098 120.994 94.6116 120.911 94.6116C119.496 94.6116 118.404 94.2345 117.811 93.2264C117.486 92.6757 117.311 91.9383 117.311 90.9731V78.9915C117.226 78.9915 117.143 78.9933 117.06 78.9971C116.906 79.0045 116.755 79.0195 116.603 79.04C114.1 79.3872 112.172 81.5584 112.172 84.1851V93.0173C112.172 93.611 112.218 94.1692 112.316 94.69C112.333 94.7815 112.353 94.873 112.373 94.9626C112.981 97.6453 114.974 99.234 118.484 99.234C121.68 99.234 124.027 97.7611 125.361 96.2489V98.743C126.564 98.743 127.668 98.3267 128.544 97.6266C128.714 97.4904 128.875 97.3447 129.026 97.1898C129.203 97.0087 129.366 96.8127 129.516 96.6073C129.974 95.9707 130.293 95.2258 130.428 94.4175C130.476 94.1356 130.5 93.8462 130.5 93.5494V78.9915C127.663 78.9915 125.361 81.3157 125.361 84.1851Z" fill="white"/>
<path d="M144.944 83.5298V82.9996C144.944 81.8925 144.501 80.89 143.783 80.1657C143.066 79.4394 142.074 78.9914 140.978 78.9914V78.8271C140.978 77.3821 140.398 76.0735 139.462 75.1269C138.525 74.1786 137.23 73.5942 135.801 73.5942V78.9914H132.562V80.259C132.562 80.9516 132.777 81.5975 133.143 82.1259C133.252 82.2864 133.375 82.4358 133.512 82.5721C133.968 83.0332 134.561 83.358 135.224 83.4775C135.411 83.513 135.603 83.5298 135.801 83.5298V93.8349C135.801 97.3521 137.742 99.2339 141.342 99.2339C141.361 99.2339 141.377 99.2321 141.394 99.2321H141.407C143.711 99.2209 145.356 96.9732 144.732 94.7329L144.54 94.0403C144.255 94.3259 143.53 94.6116 142.759 94.6116C142.576 94.6116 142.405 94.5873 142.248 94.5406C141.433 94.2998 140.978 93.4728 140.978 92.4441V83.5298H144.944Z" fill="white"/>
<path d="M150.313 80.4942H150.226C149.332 80.4942 148.447 80.2777 147.656 79.8669V98.743C150.494 98.743 152.793 96.4168 152.793 93.5493V79.8669C152.047 80.2571 151.205 80.4811 150.313 80.4942Z" fill="white"/>
<path d="M153.997 74.9813C153.912 76.9695 152.255 78.5975 150.286 78.6273C149.614 78.6385 148.984 78.4724 148.435 78.1718C147.255 77.5259 146.453 76.2639 146.453 74.8152C146.453 73.3665 147.255 72.1026 148.435 71.4585C148.967 71.1654 149.579 70.9993 150.227 70.9993C152.366 70.9993 154.088 72.8008 153.997 74.9813Z" fill="#588DE9"/>
</g>
<defs>
<clipPath id="clip0_175_30527">
<rect width="154" height="101" fill="white"/>
</clipPath>
</defs>
</svg>
