<svg width="90" height="90" viewBox="0 0 90 90" fill="none" xmlns="http://www.w3.org/2000/svg">
<path d="M85.214 52.4538L85.1878 52.4668C82.1028 54.8327 80.7957 58.8586 81.8938 62.5841L81.9068 62.6103C83.6583 68.5317 79.3188 74.505 73.1489 74.662H73.1229C69.2276 74.7666 65.8028 77.25 64.5087 80.9232V80.9362C62.4433 86.766 55.4112 89.0534 50.3263 85.5371C47.169 83.3811 42.995 83.2686 39.6731 85.5371H39.6601C34.5755 89.0402 27.543 86.7658 25.4907 80.923C24.185 77.2407 20.7654 74.7663 16.8767 74.6618H16.8506C10.681 74.5049 6.34112 68.5315 8.09278 62.6101L8.10579 62.5839C9.20354 58.8584 7.89643 54.8325 4.81182 52.4666L4.78563 52.4536C-0.116206 48.6889 -0.116206 41.3168 4.78563 37.5523L4.81182 37.5393C7.89643 35.1735 9.20354 31.1474 8.09278 27.422V27.3959C6.32793 21.4747 10.6808 15.5009 16.8506 15.3441H16.8767C20.7589 15.2395 24.1966 12.7559 25.4907 9.08296V9.06995C27.5428 3.24017 34.5755 0.952728 39.6601 4.46906H39.6731C42.8755 6.6781 47.1106 6.6781 50.3263 4.46906C55.4623 0.922318 62.4554 3.27515 64.5087 9.06995V9.08296C65.8028 12.7429 69.2274 15.2397 73.1229 15.3441H73.1489C79.3186 15.5009 83.6583 21.4747 81.9068 27.3959L81.8938 27.422C80.7957 31.1474 82.1028 35.1735 85.1878 37.5393L85.214 37.5523C90.1158 41.3168 90.1158 48.6891 85.214 52.4538Z" fill="#3EB655"/>
<path d="M45.0009 69.3488C58.4483 69.3488 69.3496 58.4475 69.3496 45.0001C69.3496 31.5527 58.4483 20.6514 45.0009 20.6514C31.5535 20.6514 20.6522 31.5527 20.6522 45.0001C20.6522 58.4475 31.5535 69.3488 45.0009 69.3488Z" fill="#8BD399"/>
<path opacity="0.1" d="M63.6967 29.4139C59.4851 25.9492 54.0969 23.8667 48.223 23.8667C34.7758 23.8667 23.8685 34.774 23.8685 48.2212C23.8685 54.0951 25.951 59.4833 29.4155 63.6949C24.0645 59.2313 20.6561 52.517 20.6561 44.9995C20.6561 31.5521 31.554 20.6543 45.0013 20.6543C52.5188 20.6543 59.2331 24.0627 63.6967 29.4139Z" fill="black"/>
<path d="M39.2085 54.5319L33.8241 48.8035C32.414 47.303 32.4868 44.9439 33.9867 43.5337C35.4867 42.1219 37.8469 42.1976 39.2558 43.697L41.826 46.4304L52.7514 33.9433C54.1056 32.3936 56.4611 32.2365 58.012 33.5926C59.5617 34.9488 59.7181 37.3035 58.3627 38.8532L44.73 54.4336C43.2776 56.0917 40.7146 56.1352 39.2085 54.5319Z" fill="white"/>
</svg>
