<svg width="25" height="24" viewBox="0 0 25 24" fill="none" xmlns="http://www.w3.org/2000/svg">
<path fill-rule="evenodd" clip-rule="evenodd" d="M11.3129 1.75C11.3367 1.75 11.3606 1.75 11.3846 1.75H13.4151C13.4391 1.75 13.463 1.75 13.4868 1.75C14.356 1.74994 15.1144 1.74988 15.7084 1.83515C16.341 1.92597 16.9996 2.13996 17.4597 2.74418C17.8284 3.22842 17.9223 3.77245 17.8955 4.30063C17.8676 4.85221 17.3978 5.27668 16.8462 5.24872C16.2946 5.22076 15.8701 4.75095 15.8981 4.19937C15.9039 4.08513 15.8941 4.02443 15.887 3.99663C15.8816 3.97503 15.8764 3.96625 15.8685 3.95583C15.861 3.94601 15.8498 3.9314 15.8021 3.90911C15.7421 3.88109 15.6298 3.84437 15.4242 3.81486C14.9895 3.75246 14.3773 3.75 13.4151 3.75H11.3846C10.4224 3.75 9.81015 3.75246 9.37552 3.81486C9.1699 3.84437 9.05756 3.88109 8.99758 3.90911C8.94988 3.9314 8.93872 3.94601 8.93124 3.95583C8.9233 3.96625 8.91812 3.97503 8.91266 3.99663C8.90562 4.02443 8.89581 4.08513 8.9016 4.19937C8.92956 4.75095 8.50509 5.22076 7.95352 5.24872C7.40194 5.27668 6.93213 4.85221 6.90417 4.30063C6.87739 3.77245 6.97131 3.22842 7.34004 2.74418C7.80013 2.13996 8.45866 1.92597 9.09132 1.83515C9.68531 1.74988 10.4437 1.74994 11.3129 1.75Z" fill="#2970FF"/>
<path fill-rule="evenodd" clip-rule="evenodd" d="M9.81611 5.75001C9.84214 5.75001 9.86826 5.75001 9.89447 5.75001L14.984 5.75001C16.1302 5.74995 17.1024 5.7499 17.8565 5.86282C18.6557 5.98251 19.4225 6.25731 19.9424 6.98071C20.189 7.32391 20.3307 7.70217 20.3896 8.10577C20.4692 8.65228 20.0908 9.15989 19.5443 9.23955C18.9978 9.31921 18.4902 8.94076 18.4105 8.39425C18.3936 8.2786 18.3615 8.20797 18.3183 8.14793C18.253 8.05702 18.1205 7.92467 17.5603 7.84077C16.972 7.75268 16.1516 7.75001 14.9056 7.75001H9.89447C8.64842 7.75001 7.82803 7.75268 7.23978 7.84077C6.67952 7.92467 6.54709 8.05702 6.48175 8.14793C6.4386 8.20797 6.40643 8.2786 6.38958 8.39425C6.30991 8.94076 5.8023 9.31921 5.25579 9.23955C4.70928 9.15989 4.33083 8.65228 4.41049 8.10577C4.46932 7.70216 4.61102 7.32391 4.85768 6.98071C5.37759 6.25731 6.14436 5.98251 6.94359 5.86282C7.6977 5.7499 8.66992 5.74995 9.81611 5.75001Z" fill="#2970FF"/>
<path d="M16.9047 9.75C18.0786 9.74997 19.0444 9.74994 19.7865 9.86065C20.5617 9.97631 21.2544 10.2342 21.7193 10.8824C22.1816 11.5269 22.2115 12.2689 22.0858 13.0493C21.9648 13.8007 21.6727 14.7365 21.316 15.8792L20.5793 18.2395C20.1317 19.6734 19.6617 20.7624 18.7718 21.4329C17.8768 22.1074 16.7037 22.25 15.1895 22.25H9.61003C8.09587 22.25 6.9227 22.1074 6.02769 21.4329C5.13785 20.7624 4.66779 19.6734 4.22023 18.2395L3.48355 15.8792C3.12685 14.7365 2.83474 13.8007 2.71372 13.0493C2.58802 12.2689 2.61792 11.5269 3.08021 10.8824C3.54513 10.2342 4.2378 9.97631 5.01305 9.86065C5.75511 9.74994 6.72092 9.74997 7.89478 9.75H7.89481H16.9047H16.9047Z" fill="#2970FF"/>
</svg>
