<svg width="25" height="24" viewBox="0 0 25 24" fill="none" xmlns="http://www.w3.org/2000/svg">
<path d="M5.00901 11.4516C5.22149 7.41446 8.55689 4.25 12.5996 4.25C16.6423 4.25 19.9777 7.41446 20.1902 11.4516C20.1993 11.6241 20.206 11.7893 20.2126 11.9485C20.2347 12.49 20.254 12.9615 20.3521 13.4133C20.4694 13.9531 20.6863 14.3775 21.1275 14.7084C21.8968 15.2854 22.3496 16.191 22.3496 17.1527C22.3496 18.534 21.2624 19.75 19.7996 19.75H5.39961C3.9368 19.75 2.84961 18.534 2.84961 17.1527C2.84961 16.191 3.30239 15.2854 4.07174 14.7084C4.5129 14.3775 4.72986 13.9531 4.8471 13.4133C4.94522 12.9615 4.96451 12.49 4.98666 11.9485V11.9485L4.98666 11.9485C4.99317 11.7893 4.99993 11.6241 5.00901 11.4516Z" fill="#2970FF"/>
<path fill-rule="evenodd" clip-rule="evenodd" d="M11.1282 1.37434C11.5733 1.08296 12.1166 1 12.5996 1C13.0826 1 13.6259 1.08296 14.0711 1.37434C14.5648 1.69759 14.8496 2.22083 14.8496 2.875C14.8496 3.47116 14.6166 4.09375 14.2622 4.57057C13.9134 5.03989 13.3411 5.5 12.5996 5.5C11.8581 5.5 11.2859 5.03989 10.937 4.57057C10.5826 4.09375 10.3496 3.47116 10.3496 2.875C10.3496 2.22083 10.6344 1.69759 11.1282 1.37434Z" fill="#2970FF"/>
<path fill-rule="evenodd" clip-rule="evenodd" d="M9.59961 18C10.1519 18 10.5996 18.4477 10.5996 19C10.5996 20.1046 11.495 21 12.5996 21C13.7042 21 14.5996 20.1046 14.5996 19C14.5996 18.4477 15.0473 18 15.5996 18C16.1519 18 16.5996 18.4477 16.5996 19C16.5996 21.2091 14.8087 23 12.5996 23C10.3905 23 8.59961 21.2091 8.59961 19C8.59961 18.4477 9.04732 18 9.59961 18Z" fill="#2970FF"/>
</svg>
