<svg width="25" height="24" viewBox="0 0 25 24" fill="none" xmlns="http://www.w3.org/2000/svg">
<path d="M20.1997 9C19.4046 5.01455 15.7125 2 11.279 2C6.2652 2 2.19971 5.85521 2.19971 10.61C2.19971 12.8946 3.1379 14.9704 4.66826 16.5108C5.0052 16.85 5.23016 17.3134 5.13937 17.7903C4.98953 18.5701 4.64996 19.2975 4.15276 19.9037C5.46093 20.1449 6.82117 19.9277 7.98772 19.3127C8.40009 19.0954 8.60628 18.9867 8.75178 18.9646C8.85363 18.9492 8.9863 18.9636 9.19971 19.0002" stroke="#9CA3AF" stroke-width="1.5" stroke-linecap="round" stroke-linejoin="round"/>
<path d="M11.1997 16.2617C11.1997 19.1674 13.6625 21.5234 16.6997 21.5234C17.0568 21.5238 17.4129 21.4908 17.7637 21.425C18.0162 21.3775 18.1425 21.3538 18.2306 21.3673C18.3188 21.3807 18.4437 21.4472 18.6935 21.58C19.4001 21.9558 20.2241 22.0885 21.0166 21.9411C20.7154 21.5707 20.5097 21.1262 20.4189 20.6496C20.3639 20.3582 20.5002 20.075 20.7043 19.8677C21.6314 18.9263 22.1997 17.6578 22.1997 16.2617C22.1997 13.356 19.7369 11 16.6997 11C13.6625 11 11.1997 13.356 11.1997 16.2617Z" stroke="#9CA3AF" stroke-width="1.5" stroke-linejoin="round"/>
</svg>
