<svg width="25" height="24" viewBox="0 0 25 24" fill="none" xmlns="http://www.w3.org/2000/svg">
<path d="M10.4502 16.2617C10.4502 12.9108 13.2804 10.25 16.7002 10.25C20.12 10.25 22.9502 12.9108 22.9502 16.2617C22.9502 17.8671 22.2955 19.3213 21.2392 20.3939C21.1959 20.4379 21.1723 20.478 21.1623 20.5032C21.1597 20.5098 21.1583 20.5143 21.1577 20.5171C21.2263 20.8706 21.3791 21.1975 21.599 21.468C21.766 21.6733 21.8123 21.9514 21.7211 22.1998C21.6298 22.4482 21.4144 22.6301 21.1542 22.6785C20.1915 22.8576 19.1953 22.6961 18.3418 22.2422C18.2363 22.1861 18.1666 22.1492 18.115 22.1234C18.0667 22.1314 18.0011 22.1436 17.9026 22.1621C17.5062 22.2365 17.1036 22.2739 16.6997 22.2734C13.2802 22.2731 10.4502 19.6125 10.4502 16.2617Z" fill="#2970FF"/>
<path d="M11.2002 1.25C5.84765 1.25 1.4502 5.41003 1.4502 10.61C1.4502 13.1039 2.46657 15.3654 4.1128 17.037C4.34344 17.2712 4.4058 17.4985 4.37729 17.6507C4.25154 18.3102 3.96729 18.9225 3.55426 19.4306C3.38733 19.6359 3.34095 19.914 3.43222 20.1624C3.52349 20.4107 3.73889 20.5926 3.99905 20.641C5.46604 20.9139 6.9866 20.668 8.28983 19.9749C8.4564 19.8864 8.57595 19.8229 8.66869 19.7765C8.72865 19.7465 8.75862 19.7315 8.78236 19.7241C8.80305 19.7178 8.80731 19.7167 8.80806 19.7166C8.81179 19.7158 8.80248 19.7178 8.80822 19.7168C8.81395 19.7158 8.80463 19.717 8.80836 19.7165C8.82733 19.714 8.84944 19.7137 8.87427 19.7175C8.97291 19.731 9.1064 19.7559 9.32064 19.7961C9.56107 19.8413 9.73808 19.5825 9.63451 19.3609C9.19611 18.4227 8.9502 17.3758 8.9502 16.2617C8.9502 12.0181 12.5177 8.75 16.7002 8.75C17.8245 8.75 18.9044 8.98615 19.8824 9.41393C20.381 9.632 20.6304 9.74104 20.7721 9.62639C20.9139 9.51173 20.8651 9.27283 20.7675 8.79503C19.8851 4.47485 15.9129 1.25 11.2002 1.25Z" fill="#2970FF"/>
</svg>
