<svg width="24" height="25" viewBox="0 0 24 25" fill="none" xmlns="http://www.w3.org/2000/svg">
<path d="M4.1449 4.30437C7.12587 2.47584 9.8001 3.20459 11.4156 4.41783C11.6814 4.61742 11.8638 4.75402 11.9996 4.84626C12.1354 4.75402 12.3178 4.61742 12.5836 4.41783C14.1991 3.20459 16.8734 2.47584 19.8543 4.30437C21.9156 5.56874 23.0754 8.20982 22.6684 11.2443C22.2595 14.2935 20.2859 17.7421 16.1063 20.8357C14.6549 21.9106 13.5897 22.6995 11.9996 22.6995C10.4095 22.6995 9.34433 21.9106 7.89294 20.8357C3.71334 17.7421 1.73976 14.2935 1.33081 11.2443C0.923824 8.20982 2.08365 5.56874 4.1449 4.30437Z" fill="#ED4242"/>
</svg>
