<svg width="20" height="20" viewBox="0 0 20 20" fill="none" xmlns="http://www.w3.org/2000/svg">
<path fill-rule="evenodd" clip-rule="evenodd" d="M14.4263 1.60882C13.3068 1.45831 11.8729 1.45832 10.0473 1.45833H9.95203C8.12644 1.45832 6.69254 1.45831 5.57303 1.60882C4.42581 1.76306 3.5156 2.08559 2.80044 2.80076C2.08527 3.51592 1.76274 4.42613 1.6085 5.57335C1.45799 6.69286 1.458 8.12676 1.45801 9.95235V10.0476C1.458 11.8732 1.45799 13.3071 1.6085 14.4266C1.76274 15.5739 2.08527 16.4841 2.80044 17.1992C3.5156 17.9144 4.42581 18.2369 5.57303 18.3912C6.69254 18.5417 8.12642 18.5417 9.952 18.5417H9.95202H9.95204H10.0473H10.0473H10.0474C11.8729 18.5417 13.3068 18.5417 14.4263 18.3912C15.5735 18.2369 16.4837 17.9144 17.1989 17.1992C17.9141 16.4841 18.2366 15.5739 18.3908 14.4266C18.5414 13.3071 18.5414 11.8732 18.5413 10.0477V10.0477V10.0476V9.95236V9.95234V9.95232C18.5414 8.12674 18.5414 6.69286 18.3908 5.57335C18.2366 4.42613 17.9141 3.51592 17.1989 2.80076C16.4837 2.08559 15.5735 1.76306 14.4263 1.60882ZM10.833 6.66666C10.833 6.20642 10.4599 5.83333 9.99967 5.83333C9.53944 5.83333 9.16634 6.20642 9.16634 6.66666V9.16666H6.66634C6.2061 9.16666 5.83301 9.53976 5.83301 10C5.83301 10.4602 6.2061 10.8333 6.66634 10.8333H9.16634V13.3333C9.16634 13.7936 9.53944 14.1667 9.99967 14.1667C10.4599 14.1667 10.833 13.7936 10.833 13.3333V10.8333H13.333C13.7932 10.8333 14.1663 10.4602 14.1663 10C14.1663 9.53976 13.7932 9.16666 13.333 9.16666H10.833V6.66666Z" fill="#2970FF"/>
</svg>
