<svg width="16" height="16" viewBox="0 0 16 16" fill="none" xmlns="http://www.w3.org/2000/svg">
<path d="M1.33325 7.33332C1.33325 5.13344 1.33325 4.03349 2.01667 3.35007C2.70009 2.66666 3.80003 2.66666 5.99992 2.66666H6.66659C8.86647 2.66666 9.96642 2.66666 10.6498 3.35007C11.3333 4.03349 11.3333 5.13344 11.3333 7.33332V8.66666C11.3333 10.8665 11.3333 11.9665 10.6498 12.6499C9.96642 13.3333 8.86647 13.3333 6.66659 13.3333H5.99992C3.80003 13.3333 2.70009 13.3333 2.01667 12.6499C1.33325 11.9665 1.33325 10.8665 1.33325 8.66666V7.33332Z" stroke="#454955"/>
<path d="M11.3333 5.93722L11.4172 5.86795C12.8277 4.70413 13.533 4.12222 14.0998 4.40319C14.6666 4.68417 14.6666 5.61568 14.6666 7.4787V8.52126C14.6666 10.3843 14.6666 11.3158 14.0998 11.5968C13.533 11.8777 12.8277 11.2958 11.4172 10.132L11.3333 10.0627" stroke="#454955" stroke-linecap="round"/>
<ellipse cx="7.6665" cy="6.33331" rx="1" ry="1" stroke="#454955"/>
</svg>
