<svg width="25" height="24" viewBox="0 0 25 24" fill="none" xmlns="http://www.w3.org/2000/svg">
<path d="M22.3371 12.9178C22.0547 13.6884 21.2014 14.3047 19.4948 15.5372C17.1677 17.218 16.0041 18.0583 15.0312 17.9969C14.2882 17.9499 13.5976 17.6007 13.1223 17.0315C12.5 16.2863 12.5 14.8575 12.5 12C12.5 9.14246 12.5 7.71369 13.1223 6.96846C13.5976 6.39933 14.2882 6.0501 15.0312 6.00315C16.0041 5.94167 17.1677 6.78203 19.4948 8.46275C21.2014 9.6953 22.0547 10.3116 22.3371 11.0822C22.5543 11.675 22.5543 12.325 22.3371 12.9178Z" stroke="#C9860D" stroke-width="1.5" stroke-linejoin="round"/>
<path d="M12.3371 12.9178C12.0547 13.6884 11.2014 14.3047 9.49482 15.5372C7.16769 17.218 6.00413 18.0583 5.0312 17.9969C4.28818 17.9499 3.59758 17.6007 3.12232 17.0315C2.5 16.2863 2.5 14.8575 2.5 12C2.5 9.14246 2.5 7.71369 3.12232 6.96846C3.59758 6.39933 4.28818 6.0501 5.0312 6.00315C6.00413 5.94167 7.16769 6.78203 9.49482 8.46275C11.2014 9.6953 12.0547 10.3116 12.3371 11.0822C12.5543 11.675 12.5543 12.325 12.3371 12.9178Z" stroke="#C9860D" stroke-width="1.5" stroke-linejoin="round"/>
</svg>
