<svg width="16" height="16" viewBox="0 0 16 16" fill="none" xmlns="http://www.w3.org/2000/svg">
<g clip-path="url(#clip0_43_37891)">
<path d="M9.15241 2.29616L10.3256 4.66196C10.4856 4.99129 10.9122 5.30717 11.2722 5.36766L13.3986 5.72388C14.7585 5.95239 15.0784 6.9471 14.0985 7.92837L12.4454 9.59518C12.1654 9.87747 12.0121 10.4219 12.0987 10.8117L12.572 12.875C12.9453 14.5082 12.0854 15.14 10.6522 14.2865L8.65913 13.0968C8.29917 12.8818 7.7059 12.8818 7.33928 13.0968L5.34616 14.2865C3.91965 15.14 3.05308 14.5015 3.42637 12.875L3.89966 10.8117C3.98631 10.4219 3.833 9.87747 3.55303 9.59518L1.89988 7.92837C0.926651 6.9471 1.23995 5.95239 2.5998 5.72388L4.72623 5.36766C5.07953 5.30717 5.50615 4.99129 5.66613 4.66196L6.83933 2.29616C7.47926 1.01245 8.51915 1.01245 9.15241 2.29616Z" stroke="#9CA3AF" stroke-width="1.5" stroke-linecap="round" stroke-linejoin="round"/>
</g>
<defs>
<clipPath id="clip0_43_37891">
<rect width="16" height="16" fill="white"/>
</clipPath>
</defs>
</svg>
